<?xml version="1.0" encoding="utf-8"?>
<!-- Generator: Adobe Illustrator 18.1.0, SVG Export Plug-In . SVG Version: 6.00 Build 0)  -->
<!DOCTYPE svg PUBLIC "-//W3C//DTD SVG 1.1//EN" "http://www.w3.org/Graphics/SVG/1.1/DTD/svg11.dtd">
<svg version="1.1" id="Layer_1" xmlns="http://www.w3.org/2000/svg" xmlns:xlink="http://www.w3.org/1999/xlink" x="0px" y="0px"
	 viewBox="0 0 768 813.6" enable-background="new 0 0 768 813.6" xml:space="preserve">
<polygon fill="#B3B3B3" points="382.8,0 0,134.7 60.5,636.2 383.2,813.6 707.5,633.8 768,132.3 "/>
<polygon points="729.8,161.3 381.9,42.7 381.9,771.2 673.5,609.8 "/>
<polygon fill="#333333" points="43,163.4 94.8,611.9 381.9,771.2 381.9,42.6 "/>
<g>
	<path fill="#FFF9E9" d="M193.3,318.7c0.8-0.8,1.4-1.5,2.1-2.4l50.9,22.3c0.1-18.8,4.1-36.7,11.2-52.9l-44.1-19.3
		c2.5-9.2,0.2-19.4-7-26.7c-10.7-10.7-28-10.7-38.7,0c-9.2,9.2-10.5,23.4-3.8,34c-3.4,1.3-6.6,3.4-9.4,6.1
		c-10.7,10.7-10.7,28,0,38.7C165.3,329.4,182.6,329.4,193.3,318.7z"/>
	<path fill="#FFF9E9" d="M285.3,433.4c-13.1-13.1-23.1-28.5-29.7-45.2l-64.2,25.2c-4.7-8.3-13.6-13.9-23.8-13.9
		c-15.1,0-27.4,12.3-27.4,27.4c0,13.1,9.2,24,21.4,26.7c-1.5,3.4-2.3,7.1-2.3,11c0,15.1,12.3,27.4,27.4,27.4
		c15.1,0,27.4-12.3,27.4-27.4c0-1.1-0.1-2.1-0.2-3.1L285.3,433.4z"/>
	<path fill="#B2AEA8" d="M515.4,339.1c0,1.6-0.1,3.2-0.1,4.8l56.1-22c4.9,7.4,13.3,12.3,22.8,12.3c15.1,0,27.4-12.3,27.4-27.4
		c0-13.1-9.2-24-21.4-26.7c1.5-3.4,2.3-7.1,2.3-11c0-15.1-12.3-27.4-27.4-27.4c-15.1,0-27.4,12.3-27.4,27.4c0,1.7,0.2,3.4,0.5,5
		l-42,16.4C512.2,305.7,515.4,322,515.4,339.1z"/>
	<path fill="#B2AEA8" d="M568,415c-1.2,1.2-2.3,2.5-3.2,3.9l-60.5-26.4c-7.1,16.2-17.3,31-30.3,43.4c0,0.3,0,0.7,0,1.1l73.5,32.1
		c-1.8,8.7,0.7,18.1,7.5,24.8c10.7,10.7,28,10.7,38.7,0c9.2-9.2,10.5-23.4,3.8-34c3.4-1.3,6.6-3.4,9.4-6.1c10.7-10.7,10.7-28,0-38.7
		C596.1,404.3,578.7,404.3,568,415z"/>
	<path fill="#B2AEA8" d="M507.7,339.1c0-69.5-56.3-125.8-125.8-125.8v306.5c17.8,0.2,43.2,2.8,54.4-6c28.9-22.8,30.1-71.5,30-81.3
		C491.7,409.5,507.7,376.2,507.7,339.1z M434.4,381.1c-20.8,0-37.7-16.9-37.7-37.7s16.9-37.7,37.7-37.7c20.8,0,37.7,16.9,37.7,37.7
		S455.2,381.1,434.4,381.1z"/>
	<path fill="#FFF9E9" d="M381.9,213.3c-69.5,0-125.8,56.3-125.8,125.8c0,36.1,15.2,68.6,39.6,91.6h0c0,0-0.2,55.5,29.8,81.3
		c11.7,10.1,35.4,7.7,54.4,7.7c0.7,0,1.4,0,2.1,0V213.3z M329.4,381.1c-20.8,0-37.7-16.9-37.7-37.7s16.9-37.7,37.7-37.7
		c20.8,0,37.7,16.9,37.7,37.7S350.2,381.1,329.4,381.1z"/>
</g>
</svg>
