<?xml version="1.0" encoding="utf-8"?>
<!DOCTYPE svg PUBLIC "-//W3C//DTD SVG 1.1//EN" "http://www.w3.org/Graphics/SVG/1.1/DTD/svg11.dtd">
<svg version="1.1" id="Layer_1" 
	 xmlns="http://www.w3.org/2000/svg" xmlns:xlink="http://www.w3.org/1999/xlink" x="0px" y="0px"
	 viewBox="310.2399902 -52 75.5200043 80" enable-background="new 310.2399902 -52 75.5200043 80" xml:space="preserve">
<switch>
	<g>
		<polygon fill="#B3B3B3" points="347.879364,-52 310.2399902,-38.7539101 316.1879883,10.5597744 347.9194336,28 379.81427,10.3235312 385.7599792,-38.9883347"/>
		<polygon fill="#A6120D" points="382.0055542,-36.1383781 347.7915039,-47.8058624 347.7915039,23.833168 376.4645081,7.9642644"/>
		<polygon fill="#DD1B16" points="314.4637146,-35.9280815 319.5605164,8.175024 347.7910461,23.833168 347.7910461,-47.8072243"/>
		<path fill="#F2F2F2" d="M357.2094421-9.6689606l-9.4179382,4.4039841h-9.9263611L333.1989746,6.406147l-8.6791687,0.1606817 23.271698-51.7712669L357.2094421-9.6689606z M356.2990417-11.8862019L347.8538818-28.60495l-6.927124,16.4310646h6.8642883 L356.2990417-11.8862019z"/>
		<polygon fill="#B3B3B3" points="347.7910461,-45.2044373 347.8534241,-28.60495 355.7136841,-12.1611366 347.8088074,-12.1611366 347.7910461,-5.2754469 358.7215881,-5.2649798 363.8302002,6.5686483 372.1347351,6.7225022"/>
	</g>
</switch>
</svg>
