<?xml version="1.0" encoding="utf-8"?>
<!DOCTYPE svg PUBLIC "-//W3C//DTD SVG 1.1//EN" "http://www.w3.org/Graphics/SVG/1.1/DTD/svg11.dtd">
<svg version="1.1" id="Layer_1"
	 xmlns="http://www.w3.org/2000/svg" xmlns:xlink="http://www.w3.org/1999/xlink" x="0px" y="0px" viewBox="0 0 57.1099243 80"
	 enable-background="new 0 0 57.1099243 80" xml:space="preserve">
<switch>
	<g>
		<polygon fill="#1F62AE" points="51.7553444,73.752861 28.5547237,80 5.3537421,73.752861 0,15.7513628 57.1099243,15.7513628 			
			"/>
		<polygon fill="#3C9BD5" points="28.5544682,20.4494038 28.5544682,75.0175247 28.6067772,75.031662 47.3821602,69.9761505 
			51.7157631,20.4494038 			"/>
		<g>
			<polygon points="15.3873339,7.2297902 15.3873339,3.7776113 20.4241276,3.7776113 20.4241276,0 11.609724,0 
				11.609724,10.6768932 20.4241276,10.6768932 20.4241276,7.2297902 				"/>
			<path d="M29.4848785,3.7776113h3.5211945V0h-8.8150673c0,0,0,1.8960787,0,3.7776113
				c1.1792622,1.1794133,1.7943745,1.743804,3.4999237,3.449522c-0.9969578,0-3.4999237,0.0035768-3.4999237,0.0033212v3.4464388
				h8.8150673v-3.447103L29.4848785,3.7776113z"/>
			<path d="M41.9790039,3.7776113h3.5212135V0h-8.815731c0,0,0,1.8960787,0,3.7776113
				c1.1793289,1.1794133,1.7947845,1.743804,3.5003967,3.449522c-0.996685,0-3.5003967,0.0035768-3.5003967,0.0033212v3.4464388
				h8.815731v-3.447103L41.9790039,3.7776113z"/>
		</g>
		<g>
			<polygon fill="#FFFFFF" points="28.533926,34.9521446 11.928256,41.8680496 12.4790878,48.715023 28.533926,41.8505936 
				45.6118355,34.5490265 46.3200989,27.5447865 				"/>
			<linearGradient id="SVGID_1_" gradientUnits="userSpaceOnUse" x1="20.2310905" y1="48.715023" x2="20.2310905" y2="34.9521446">
				<stop  offset="0.386503" style="stop-color:#D0D2D3;stop-opacity:0"/>
				<stop  offset="1" style="stop-color:#D0D2D3"/>
			</linearGradient>
			<polygon fill="url(#SVGID_1_)" points="11.928256,41.8680496 12.4790878,48.715023 28.533926,41.8505936 28.533926,34.9521446 
								"/>
			
				<linearGradient id="SVGID_2_" gradientUnits="userSpaceOnUse" x1="37.4270134" y1="41.8505936" x2="37.4270134" y2="27.5447865">
				<stop  offset="0.386503" style="stop-color:#D0D2D3;stop-opacity:0"/>
				<stop  offset="1" style="stop-color:#D0D2D3"/>
			</linearGradient>
			<polygon fill="url(#SVGID_2_)" points="46.3200989,27.5447865 28.533926,34.9521446 28.533926,41.8505936 
				45.6118355,34.5490265 				"/>
			
				<linearGradient id="SVGID_3_" gradientUnits="userSpaceOnUse" x1="11.9537897" y1="54.8535538" x2="45.0086784" y2="54.8535538">
				<stop  offset="0" style="stop-color:#E7E6E5"/>
				<stop  offset="1" style="stop-color:#FFFFFF"/>
			</linearGradient>
			<polygon fill="url(#SVGID_3_)" points="11.9537897,41.8680496 12.5047035,48.715023 37.1385841,48.7937012 
				36.5876694,57.922821 28.4816856,60.205143 20.6894321,58.2376938 20.2172775,52.5712242 12.976841,52.5712242 
				13.921236,63.5105972 28.5602932,67.8390579 43.1197548,63.589119 45.0086784,41.8680496 				"/>
			<g opacity="0.05">
				<polygon fill="#231F20" points="28.533926,41.8680496 11.928256,41.8680496 12.4790878,48.715023 28.533926,48.7662582 					
					"/>
				<polygon fill="#231F20" points="28.533926,60.1830139 28.4552498,60.205143 20.6639843,58.2376938 20.1917439,52.5712242 
					12.9513941,52.5712242 13.8957033,63.5105972 28.533926,67.8390579 					"/>
			</g>
			
				<linearGradient id="SVGID_4_" gradientUnits="userSpaceOnUse" x1="10.4329634" y1="31.0469055" x2="46.3200989" y2="31.0469055">
				<stop  offset="0" style="stop-color:#E7E6E5"/>
				<stop  offset="1" style="stop-color:#FFFFFF"/>
			</linearGradient>
			<polygon fill="url(#SVGID_4_)" points="10.4329634,27.5447865 46.3200989,27.5447865 45.6118355,34.5490265 
				11.2985802,34.5490265 				"/>
			<polygon opacity="0.05" fill="#231F20" points="28.533926,27.5447865 10.4329634,27.5447865 11.2985802,34.5490265 
				28.533926,34.5490265 				"/>
		</g>
	</g>
</switch>
</svg>
