<?xml version="1.0" encoding="utf-8"?>
<!DOCTYPE svg PUBLIC "-//W3C//DTD SVG 1.1//EN" "http://www.w3.org/Graphics/SVG/1.1/DTD/svg11.dtd">
<svg version="1.1" id="Layer_1"
	 xmlns="http://www.w3.org/2000/svg" xmlns:xlink="http://www.w3.org/1999/xlink" x="0px" y="0px"
	 viewBox="11.6614065 0 56.6771851 80" enable-background="new 11.6614065 0 56.6771851 80" xml:space="preserve">
<switch>
	<g>
		<polygon fill="#E44D26" points="16.8193741,73.5745316 11.6614065,15.7218752 68.3385925,15.7218752 63.1751595,73.5654678 
			39.965313,80 		"/>
		<polygon fill="#F16529" points="40,75.0817184 58.7546883,69.8821869 63.1671867,20.4521866 40,20.4521866 		"/>
		<polygon fill="#EBEBEB" points="40,41.9089088 30.6109371,41.9089088 29.9624996,34.6431274 40,34.6431274 40,27.5476551 
			39.9754677,27.5476551 22.2081261,27.5476551 22.3779678,29.451252 24.1218758,49.0042191 40,49.0042191 		"/>
		<polygon fill="#EBEBEB" points="40,60.3364105 39.9689064,60.3446884 32.0667191,58.2109375 31.5615635,52.5520325 
			27.7217197,52.5520325 24.4389057,52.5520325 25.4329681,63.6928139 39.9673424,67.7276535 40,67.7185898 		"/>
		<path d="M16.9346886,0h3.6057796v3.5625h3.2984371V0h3.605938v10.788125h-3.6057796V7.1756244h-3.2984371v3.6125007H16.934845V0
			H16.9346886z"/>
		<path d="M32.1865616,3.5774999H29.012188V0h9.9562492v3.5774999h-3.1757774v7.2106252h-3.605938V3.5774999H32.1865616z"/>
		<path d="M40.5485916,0h3.7598419l2.3128128,3.7906251L48.9317169,0h3.7612495v10.788125h-3.5909386V5.440937l-2.4807816,3.8357811
			h-0.0620308l-2.482502-3.8357811v5.347188h-3.5281219V0z"/>
		<path d="M54.4874992,0h3.6068764v7.2221875h5.0707817v3.5659375h-8.6776581V0z"/>
		<polygon fill="#FFFFFF" points="39.9754677,41.9089088 39.9754677,49.0042191 48.7126541,49.0042191 47.889061,58.2064056 
			39.9754677,60.3423462 39.9754677,67.7242203 54.5214081,63.6928139 54.6281242,62.4940643 56.2954674,43.8142204 
			56.4685898,41.9089088 54.5565605,41.9089088 		"/>
		<polygon fill="#FFFFFF" points="39.9754677,27.5476551 39.9754677,31.9545326 39.9754677,34.625782 39.9754677,34.6431274 
			57.0914078,34.6431274 57.0914078,34.6431274 57.1142197,34.6431274 57.2565613,33.0482826 57.5798416,29.451252 
			57.749527,27.5476551 		"/>
	</g>
</switch>
</svg>
