<?xml version="1.0" encoding="utf-8"?>
<!DOCTYPE svg PUBLIC "-//W3C//DTD SVG 1.1//EN" "http://www.w3.org/Graphics/SVG/1.1/DTD/svg11.dtd">
<svg version="1.1"
	 id="svg2"
	 xmlns:rdf="http://www.w3.org/1999/02/22-rdf-syntax-ns#" 
	 xmlns:cc="http://creativecommons.org/ns#" 
	 xmlns:dc="http://purl.org/dc/elements/1.1/" xmlns:svg="http://www.w3.org/2000/svg"
	 xmlns="http://www.w3.org/2000/svg" 
	 xmlns:xlink="http://www.w3.org/1999/xlink" x="0px" y="0px" viewBox="240 -26.7354736 80 80"
	 enable-background="new 240 -26.7354736 80 80" xml:space="preserve">
<switch>
	<g id="g10" transform="matrix(1.25,0,0,-1.25,-2289.1394,521.88465)">
		<g id="g12" transform="scale(1,-1)">
			<path id="path378" fill="#FEA620" d="M2023.3116455-427.9802551v21.0852051
				c0,15.526062,12.7348633,28.111969,28.4442139,28.111969h7.1113281c15.7102051,0,28.4443359-12.585907,28.4443359-28.111969
				v-21.0852051c0-3.8823853-3.1835938-7.0288696-7.1113281-7.0288696h-49.7772217
				c-3.9278564,0-7.1114502,3.1464844-7.1114502,7.0288696"/>
			<path id="path380" fill="#FFFFFF" d="M2033.9780273-410.4094849c0,11.6443787,9.5512695,21.0852051,21.3342285,21.0852051
				c11.7814941,0,21.3327637-9.4408264,21.3327637-21.0852051h-10.6677246c0,5.8214722-4.7749023,10.5426025-10.6650391,10.5426025
				c-5.8913574,0-10.6663818-4.7211304-10.6663818-10.5426025v-10.5433044h-10.6677246v10.5433044H2033.9780273z"/>
			<path id="path382" fill="#FFFFFF" d="M2068.6452637-426.7504883l-2.4890137,10.1914368l10.3105469,2.6344299
				l2.6672363-10.1907349L2068.6452637-426.7504883z"/>
		</g>
	</g>
</switch>
</svg>
