<?xml version="1.0" encoding="utf-8"?>
<!DOCTYPE svg PUBLIC "-//W3C//DTD SVG 1.1//EN" "http://www.w3.org/Graphics/SVG/1.1/DTD/svg11.dtd">
<svg version="1.1" id="Layer_1" 
	 xmlns="http://www.w3.org/2000/svg" xmlns:xlink="http://www.w3.org/1999/xlink" x="0px" y="0px" viewBox="0 0 80 80"
	 enable-background="new 0 0 80 80" xml:space="preserve">
<switch>
	<g>
		<path fill="#116BAF" d="M45.44907,79.9892578c-7.2181473,0.155838-14.0821171-1.7142258-18.5730953-3.7472076
			C17.1927471,71.8573303,9.0466528,63.711235,4.6052599,55.0055389
			c-6.3822885-12.4670677-7.5369091-29.8288746,5.7306004-42.7847061c0.2125072,0-1.6079683,2.8121738-1.3954611,2.8121738
			l-0.3683453,1.1900387c-9.5628071,30.2184696,19.8977222,56.1159668,48.5223923,53.1550369
			c6.8852234-0.7083588,15.6617508-4.5263977,21.0523453-9.9949036l-0.3683472,0.927948
			C71.6794968,72.3106766,60.8699837,79.6704941,45.44907,79.9892578z"/>
		<path fill="#116BAF" d="M23.6742058,25.6512623c-0.8996124-9.3857174,2.3446579-14.9888144,7.6856632-21.7961159
			c-1.8558922,3.5559475-2.5500813,6.304369-2.7271709,8.0540085
			C26.5997162,32.21064,44.7052994,46.7815247,60.8062325,46.8877792
			c7.2039833,0.0495834,14.7338066-3.3505249,19.1964455-8.1248474
			c-3.9101257,9.9949074-15.187149,16.4126129-30.3318024,14.3725471
			C36.9983826,51.4283409,24.9279957,38.5504265,23.6742058,25.6512623z"/>
		<path fill="#116BAF" d="M68.853157,29.7668114c-11.2699471,2.4225769-18.4951782-2.9750957-22.2707176-9.1094589
			c-0.5666847-0.9279461-1.6079674-3.4284439-1.792141-4.0659637c-1.4662933-5.0364122-0.7933578-12.6512403,3.5842819-16.5897007
			c-1.3175392,3.7472036-1.5087967,8.1035929-0.8146095,10.9228506c0.4179306,1.7213049,1.700058,4.7034845,2.9821815,6.5806274
			c2.3304901,3.4284439,3.810955,4.2572212,6.8002167,6.0776958c1.3529625,0.8216934,2.798008,1.473381,3.4284439,1.6504688
			c2.8334236,0.8500271,8.8331985,3.0742664,18.4951782-3.5701141
			C78.1538696,24.2558002,71.7078323,29.1576252,68.853157,29.7668114z"/>
	</g>
</switch>
</svg>
