<?xml version="1.0" encoding="utf-8"?>
<!-- Generator: Adobe Illustrator 18.1.0, SVG Export Plug-In . SVG Version: 6.00 Build 0)  -->
<!DOCTYPE svg PUBLIC "-//W3C//DTD SVG 1.1//EN" "http://www.w3.org/Graphics/SVG/1.1/DTD/svg11.dtd">
<svg version="1.1" id="Layer_1"
	 xmlns="http://www.w3.org/2000/svg" xmlns:xlink="http://www.w3.org/1999/xlink" x="0px" y="0px" viewBox="0 0 56.8328781 80"
	 enable-background="new 0 0 56.8328781 80" xml:space="preserve">
<switch>
	<g>
		<polygon fill="#E5A229" points="56.8328781,15.6792984 28.4164391,15.6792984 28.4164391,15.6792984 0,15.6792984 
			5.3253746,73.4536667 28.4164391,80 28.4164391,80 28.4164391,80 28.4164391,80 28.4164391,80 51.499176,73.4536667 			"/>
		<polygon fill="#F1BE21" points="28.4164391,20.3855915 28.4164391,75.107338 28.4164391,75.107338 47.1149406,69.8067322 
			51.6686516,20.3855915 			"/>
		<polygon fill="#FFFFFF" points="43.2929573,27.4748859 14.5323782,27.4748859 12.5335464,49.1072807 12.5759144,48.9715309 
			37.0064087,48.9715309 36.2092018,58.1216393 28.4164391,60.3685455 20.5044346,58.0879135 20.0297031,52.550312 
			12.8470459,52.550312 13.8733358,63.6165581 28.4164391,67.7465134 42.9595146,63.6165581 44.9610977,41.8994217 
			19.0375195,41.8994217 19.3679028,34.6575508 37.3612289,34.6575508 37.6258125,38.8023224 44.8729019,38.8023224 			"/>
		<g>
			<path fill="#EBEAEA" d="M28.4164391,27.4748859H14.5323782l-1.9988317,21.6323948l0.0423679-0.1357498h15.8405247v-7.0721092
				h-8.3788128l0.3303833-7.2418709h8.0484295V27.4748859z M20.0297031,52.550312h-7.1826572l1.0262899,11.066246
				l14.5431032,4.1209984v-7.3690109l-7.9120045-2.280632L20.0297031,52.550312z"/>
		</g>
		<g>
			<polygon points="22.8860302,7.1571321 17.8320808,7.1571321 17.8320808,10.7865686 22.8860302,10.7865686 
				25.5917568,10.7865686 26.507494,10.7865686 26.507494,0.0000002 22.8860302,0.0000002 				"/>
			<path d="M39.0010757,0.0547511h-8.8152504c0,0,0,1.8961743,0,3.7771792
				c1.1782036,1.1796143,1.7941513,1.7439158,3.5001793,3.4499438c-0.997654,0-3.5001793,0.0034571-3.5001793,0.0034571v3.4457812
				h8.8152504V7.2846255l-3.5208511-3.4526951h3.5208511V0.0547511z"/>
		</g>
	</g>
</switch>
</svg>
